<svg width="19" height="26" viewBox="0 0 19 26" fill="none" xmlns="http://www.w3.org/2000/svg">
<path d="M9.2668 1.06636C7.95726 1.06636 6.88496 2.10844 6.88496 3.39972C6.88496 4.691 7.95726 5.73308 9.2668 5.73308C10.5763 5.73308 11.6486 4.691 11.6486 3.39972C11.6486 2.10844 10.5763 1.06636 9.2668 1.06636ZM9.2668 4.26638C8.77163 4.26638 8.37591 3.87305 8.37591 3.39972C8.37591 2.92639 8.77163 2.53306 9.2668 2.53306C9.76197 2.53306 10.1577 2.92634 10.1577 3.39972C10.1577 3.8731 9.76197 4.26638 9.2668 4.26638Z" fill="#E2EBFF" stroke="#E2EBFF" stroke-width="0.4"/>
<path d="M2.72139 1.06636C1.41185 1.06636 0.339551 2.10844 0.339551 3.39972C0.339551 4.691 1.41185 5.73308 2.72139 5.73308C4.03093 5.73308 5.10322 4.691 5.10322 3.39972C5.10322 2.10844 4.03087 1.06636 2.72139 1.06636ZM2.72139 4.26638C2.22622 4.26638 1.83049 3.87305 1.83049 3.39972C1.83049 2.92639 2.22622 2.53306 2.72139 2.53306C3.21656 2.53306 3.61228 2.92634 3.61228 3.39972C3.61228 3.8731 3.21656 4.26638 2.72139 4.26638Z" fill="#E2EBFF" stroke="#E2EBFF" stroke-width="0.4"/>
<path d="M15.8122 5.73303C17.1217 5.73303 18.194 4.69095 18.194 3.39967C18.194 2.10839 17.1217 1.06636 15.8122 1.06636C14.5027 1.06636 13.4304 2.10844 13.4304 3.39972C13.4304 4.691 14.5027 5.73303 15.8122 5.73303ZM15.8122 2.53301C16.3074 2.53301 16.7031 2.92634 16.7031 3.39967C16.7031 3.87302 16.3074 4.26638 15.8122 4.26638C15.317 4.26638 14.9213 3.87306 14.9213 3.39972C14.9213 2.92637 15.317 2.53301 15.8122 2.53301Z" fill="#E2EBFF" stroke="#E2EBFF" stroke-width="0.4"/>
<path d="M9.26631 7.46589C7.95677 7.46589 6.88447 8.50798 6.88447 9.79926C6.88447 11.0905 7.95677 12.1326 9.26631 12.1326C10.5758 12.1326 11.6481 11.0905 11.6481 9.79926C11.6481 8.50798 10.5758 7.46589 9.26631 7.46589ZM9.26631 10.6659C8.77114 10.6659 8.37542 10.2726 8.37542 9.79926C8.37542 9.32592 8.77114 8.9326 9.26631 8.9326C9.76148 8.9326 10.1572 9.32588 10.1572 9.79926C10.1572 10.2726 9.76148 10.6659 9.26631 10.6659Z" fill="#E2EBFF" stroke="#E2EBFF" stroke-width="0.4"/>
<path d="M2.72139 7.46589C1.41185 7.46589 0.339551 8.50798 0.339551 9.79926C0.339551 11.0905 1.41185 12.1326 2.72139 12.1326C4.03093 12.1326 5.10322 11.0905 5.10322 9.79926C5.10322 8.50798 4.03087 7.46589 2.72139 7.46589ZM2.72139 10.6659C2.22622 10.6659 1.83049 10.2726 1.83049 9.79926C1.83049 9.32592 2.22622 8.9326 2.72139 8.9326C3.21656 8.9326 3.61228 9.32588 3.61228 9.79926C3.61228 10.2726 3.21656 10.6659 2.72139 10.6659Z" fill="#E2EBFF" stroke="#E2EBFF" stroke-width="0.4"/>
<path d="M15.8132 7.46589C14.5036 7.46589 13.4313 8.50798 13.4313 9.79926C13.4313 11.0905 14.5036 12.1326 15.8132 12.1326C17.1227 12.1326 18.195 11.0905 18.195 9.79926C18.195 8.50798 17.1227 7.46589 15.8132 7.46589ZM15.8132 10.6659C15.318 10.6659 14.9223 10.2726 14.9223 9.79926C14.9223 9.32592 15.318 8.9326 15.8132 8.9326C16.3084 8.9326 16.7041 9.32592 16.7041 9.79926C16.7041 10.2726 16.3084 10.6659 15.8132 10.6659Z" fill="#E2EBFF" stroke="#E2EBFF" stroke-width="0.4"/>
<path d="M9.26631 13.8673C7.95677 13.8673 6.88447 14.9093 6.88447 16.2006C6.88447 17.4919 7.95677 18.534 9.26631 18.534C10.5758 18.534 11.6481 17.4919 11.6481 16.2006C11.6481 14.9093 10.5758 13.8673 9.26631 13.8673ZM9.26631 17.0673C8.77114 17.0673 8.37542 16.674 8.37542 16.2006C8.37542 15.7273 8.77114 15.334 9.26631 15.334C9.76148 15.334 10.1572 15.7272 10.1572 16.2006C10.1572 16.674 9.76148 17.0673 9.26631 17.0673Z" fill="#E2EBFF" stroke="#E2EBFF" stroke-width="0.4"/>
<path d="M9.26631 20.2668C7.95677 20.2668 6.88447 21.3089 6.88447 22.6002C6.88447 23.8914 7.95677 24.9335 9.26631 24.9335C10.5758 24.9335 11.6481 23.8914 11.6481 22.6002C11.6481 21.3089 10.5758 20.2668 9.26631 20.2668ZM9.26631 23.4668C8.77114 23.4668 8.37542 23.0735 8.37542 22.6002C8.37542 22.1268 8.77114 21.7335 9.26631 21.7335C9.76148 21.7335 10.1572 22.1268 10.1572 22.6002C10.1572 23.0735 9.76148 23.4668 9.26631 23.4668Z" fill="#E2EBFF" stroke="#E2EBFF" stroke-width="0.4"/>
<path d="M2.72139 13.8673C1.41185 13.8673 0.339551 14.9093 0.339551 16.2006C0.339551 17.4919 1.41185 18.534 2.72139 18.534C4.03093 18.534 5.10322 17.4919 5.10322 16.2006C5.10322 14.9093 4.03087 13.8673 2.72139 13.8673ZM2.72139 17.0673C2.22622 17.0673 1.83049 16.674 1.83049 16.2006C1.83049 15.7273 2.22622 15.334 2.72139 15.334C3.21656 15.334 3.61228 15.7272 3.61228 16.2006C3.61228 16.674 3.21656 17.0673 2.72139 17.0673Z" fill="#E2EBFF" stroke="#E2EBFF" stroke-width="0.4"/>
<path d="M15.8132 13.8673C14.5036 13.8673 13.4313 14.9093 13.4313 16.2006C13.4313 17.4919 14.5036 18.534 15.8132 18.534C17.1227 18.534 18.195 17.4919 18.195 16.2006C18.195 14.9093 17.1227 13.8673 15.8132 13.8673ZM15.8132 17.0673C15.318 17.0673 14.9223 16.674 14.9223 16.2006C14.9223 15.7273 15.318 15.334 15.8132 15.334C16.3084 15.334 16.7041 15.7273 16.7041 16.2006C16.7041 16.674 16.3084 17.0673 15.8132 17.0673Z" fill="#E2EBFF" stroke="#E2EBFF" stroke-width="0.4"/>
</svg>
